<?xml version="1.0" encoding="UTF-8" standalone="no"?>
<svg width="24px" height="24px" viewBox="0 0 24 24" version="1.1" xmlns="http://www.w3.org/2000/svg" xmlns:xlink="http://www.w3.org/1999/xlink">
    <!-- Generator: Sketch 42 (36781) - http://www.bohemiancoding.com/sketch -->
    <title>company-info-white</title>
    <desc>Created with Sketch.</desc>
    <defs></defs>
    <g id="--icons" stroke="none" stroke-width="1" fill="none" fill-rule="evenodd">
        <g id="company-info-white" stroke="#FFFFFF" stroke-width="1.2">
            <g id="icon" transform="translate(2.000000, 1.000000)">
                <path d="M11.5807,15.2783 L8.2687,12.8583 L16.7327,1.2793 C17.2727,0.5403 18.3097,0.3793 19.0497,0.9193 L19.7577,1.4373 C20.4977,1.9773 20.6587,3.0143 20.1177,3.7543 L11.7087,15.2583 C11.6787,15.2993 11.6217,15.3083 11.5807,15.2783 Z" id="Stroke-1" stroke-linecap="round" stroke-linejoin="round"></path>
                <polygon id="Stroke-3" stroke-linecap="round" stroke-linejoin="round" points="8.2684 12.8584 7.6004 17.3254 11.6544 15.3324"></polygon>
                <path d="M15.941,2.363 L19.327,4.837" id="Stroke-5" stroke-linecap="round" stroke-linejoin="round"></path>
                <polyline id="Stroke-7" stroke-linecap="round" stroke-linejoin="round" points="19.6 8.6 19.6 21.6 0.6 21.6 0.6 0.6 13.6 0.6"></polyline>
                <path d="M4.6,7.6 L11.6,7.6" id="Stroke-9" stroke-linecap="round" stroke-linejoin="round"></path>
                <path d="M5.5998,12.6 L8.5998,12.6" id="Stroke-11"></path>
                <path d="M4.6,12.6 L5.6,12.6" id="Stroke-13" stroke-linecap="round" stroke-linejoin="round"></path>
            </g>
        </g>
    </g>
</svg>