<?xml version="1.0" encoding="UTF-8" standalone="no"?>
<svg width="24px" height="24px" viewBox="0 0 24 24" version="1.1" xmlns="http://www.w3.org/2000/svg" xmlns:xlink="http://www.w3.org/1999/xlink">
    <!-- Generator: Sketch 42 (36781) - http://www.bohemiancoding.com/sketch -->
    <title>images-videos-white</title>
    <desc>Created with Sketch.</desc>
    <defs></defs>
    <g id="--icons" stroke="none" stroke-width="1" fill="none" fill-rule="evenodd" stroke-linecap="round" stroke-linejoin="round">
        <g id="images-videos-white" stroke="#FFFFFF" stroke-width="1.2">
            <g id="icon" transform="translate(1.000000, 1.000000)">
                <polyline id="Stroke-1" points="15.6 14.6 11.6 8.6 9.1 12.6 6.6 10.6 2.6 14.6"></polyline>
                <polygon id="Stroke-2" points="0.6 17.6 17.6 17.6 17.6 0.6 0.6 0.6"></polygon>
                <polyline id="Stroke-4" points="19.6083 6.4804 21.6003 6.6624 20.2373 21.6004 5.2993 20.2374"></polyline>
                <path d="M0.6,14.6 L17.6,14.6" id="Stroke-5"></path>
                <path d="M6.6,5.1 C6.6,5.929 5.929,6.6 5.1,6.6 C4.271,6.6 3.6,5.929 3.6,5.1 C3.6,4.272 4.271,3.6 5.1,3.6 C5.929,3.6 6.6,4.272 6.6,5.1 Z" id="Stroke-6"></path>
            </g>
        </g>
    </g>
</svg>