<?xml version="1.0" encoding="UTF-8" standalone="no"?>
<svg width="24px" height="24px" viewBox="0 0 24 24" version="1.1" xmlns="http://www.w3.org/2000/svg" xmlns:xlink="http://www.w3.org/1999/xlink">
    <!-- Generator: Sketch 42 (36781) - http://www.bohemiancoding.com/sketch -->
    <title>payments-white</title>
    <desc>Created with Sketch.</desc>
    <defs></defs>
    <g id="--icons" stroke="none" stroke-width="1" fill="none" fill-rule="evenodd" stroke-linecap="round">
        <g id="payments-white" stroke="#FFFFFF" stroke-width="1.2">
            <g id="icon" transform="translate(0.000000, 2.000000)">
                <path d="M0.6,4.6 L20.6,4.6" id="Stroke-1" stroke-linejoin="round"></path>
                <path d="M20.6,13.6 C20.6,14.705 19.704,15.6 18.6,15.6 L2.6,15.6 C1.495,15.6 0.6,14.705 0.6,13.6 L0.6,2.6 C0.6,1.496 1.495,0.6 2.6,0.6 L18.6,0.6 C19.704,0.6 20.6,1.496 20.6,2.6 L20.6,13.6 Z" id="Stroke-3"></path>
                <path d="M20.6,8.6 L23.6,8.6" id="Stroke-5" stroke-linejoin="round"></path>
                <path d="M20.6,4.6 L21.6,4.6 C22.704,4.6 23.6,5.496 23.6,6.6 L23.6,17.6 C23.6,18.705 22.704,19.6 21.6,19.6 L5.6,19.6 C4.495,19.6 3.6,18.705 3.6,17.6 L3.6,15.6" id="Stroke-7"></path>
                <path d="M17.6,7.6 L15.6,7.6" id="Stroke-9" stroke-linejoin="round"></path>
                <path d="M11.6,7.6 L3.6,7.6" id="Stroke-11" stroke-linejoin="round"></path>
                <path d="M6.6,10.6 L3.6,10.6" id="Stroke-13" stroke-linejoin="round"></path>
            </g>
        </g>
    </g>
</svg>