<?xml version="1.0" encoding="UTF-8" standalone="no"?>
<svg width="24px" height="24px" viewBox="0 0 24 24" version="1.1" xmlns="http://www.w3.org/2000/svg" xmlns:xlink="http://www.w3.org/1999/xlink">
    <!-- Generator: Sketch 42 (36781) - http://www.bohemiancoding.com/sketch -->
    <title>publish-white</title>
    <desc>Created with Sketch.</desc>
    <defs></defs>
    <g id="--icons" stroke="none" stroke-width="1" fill="none" fill-rule="evenodd">
        <g id="publish-white">
            <g id="icon" transform="translate(1.000000, 1.000000)">
                <path d="M0.6,4.6 L21.6,4.6" id="Stroke-1" stroke="#FFFFFF" stroke-width="1.2" stroke-linecap="round" stroke-linejoin="round"></path>
                <path d="M3.049,1.9876 C2.708,1.9876 2.432,2.2636 2.432,2.6046 C2.432,2.9456 2.708,3.2216 3.049,3.2216 C3.39,3.2216 3.666,2.9456 3.666,2.6046 C3.666,2.2636 3.39,1.9876 3.049,1.9876" id="Fill-3" fill="#FFFFFF"></path>
                <path d="M5.5161,1.9876 C5.1751,1.9876 4.8991,2.2636 4.8991,2.6046 C4.8991,2.9456 5.1751,3.2216 5.5161,3.2216 C5.8571,3.2216 6.1331,2.9456 6.1331,2.6046 C6.1331,2.2636 5.8571,1.9876 5.5161,1.9876" id="Fill-5" fill="#FFFFFF"></path>
                <path d="M7.9832,1.9876 C7.6422,1.9876 7.3662,2.2636 7.3662,2.6046 C7.3662,2.9456 7.6422,3.2216 7.9832,3.2216 C8.3242,3.2216 8.6002,2.9456 8.6002,2.6046 C8.6002,2.2636 8.3242,1.9876 7.9832,1.9876" id="Fill-7" fill="#FFFFFF"></path>
                <path d="M5.6,15.6 L2.626,15.6 C1.522,15.6 0.6,14.705 0.6,13.6 L0.6,2.6 C0.6,1.496 1.522,0.6 2.626,0.6 L19.626,0.6 C20.731,0.6 21.6,1.496 21.6,2.6 L21.6,13.6 C21.6,14.705 20.731,15.6 19.626,15.6 L17.1,15.6" id="Stroke-9" stroke="#FFFFFF" stroke-width="1.2" stroke-linecap="round"></path>
                <path d="M11.6,9.1 L11.6,20.6" id="Stroke-11" stroke="#FFFFFF" stroke-width="1.2" stroke-linecap="round" stroke-linejoin="round"></path>
                <polyline id="Stroke-13" stroke="#FFFFFF" stroke-width="1.2" stroke-linecap="round" stroke-linejoin="round" points="7.6261 13.1 11.6261 9.1 15.6261 13.1"></polyline>
            </g>
        </g>
    </g>
</svg>